<svg id="Layer_1" data-name="Layer 1" xmlns="http://www.w3.org/2000/svg" viewBox="0 0 168.07 81.07"><defs><style>.cls-1{fill:#838383;}</style></defs><title>weevil</title><path class="cls-1" d="M30.24,63.39A5.12,5.12,0,0,1,29,65a6,6,0,0,1-4.54,2H18.72a6.07,6.07,0,0,1-4.57-2,6.77,6.77,0,0,1-1.91-4.82V17h7.92V59.5h6.12V17H34.2V59.5h6.12V17h7.92v43.2a6.74,6.74,0,0,1-1.91,4.86,6.13,6.13,0,0,1-4.57,2H36a6.19,6.19,0,0,1-4.61-2A7.34,7.34,0,0,1,30.24,63.39Z"/><path class="cls-1" d="M54,33.94A6.7,6.7,0,0,1,55.9,29a6.18,6.18,0,0,1,4.57-1.94h8.64a6.13,6.13,0,0,1,4.57,2,6.74,6.74,0,0,1,1.91,4.86v9.72L61.92,50.5v9h5.76V52.3l7.92-4V60.22A6.77,6.77,0,0,1,73.69,65a6.07,6.07,0,0,1-4.57,2H60.48a6.12,6.12,0,0,1-4.57-2A6.73,6.73,0,0,1,54,60.22V33.94Zm13.68,6.48V34.66H61.92V43.3Z"/><path class="cls-1" d="M81.35,33.94A6.7,6.7,0,0,1,83.26,29a6.18,6.18,0,0,1,4.57-1.94h8.64a6.13,6.13,0,0,1,4.57,2A6.74,6.74,0,0,1,103,33.94v9.72L89.27,50.5v9H95V52.3l7.92-4V60.22A6.77,6.77,0,0,1,101,65a6.07,6.07,0,0,1-4.57,2H87.83a6.12,6.12,0,0,1-4.57-2,6.73,6.73,0,0,1-1.91-4.86V33.94ZM95,40.42V34.66H89.27V43.3Z"/><path class="cls-1" d="M131.75,67.06V25.77l7.92,0V67.06h-7.92Z"/><path class="cls-1" d="M145.43,67.06V16.62l7.92,0v50.4h-7.92Z"/><polygon class="cls-1" points="117.35 54.46 116.08 45.46 108.78 45.46 112.67 67.06 122.03 67.06 125.92 45.46 118.63 45.46 117.35 54.46"/><rect class="cls-1" x="131.75" y="16.43" width="7.92" height="4.98"/><polygon class="cls-1" points="108.98 30.92 116.08 30.92 113.81 26.75 111.25 26.75 108.98 30.92"/><polygon class="cls-1" points="126.08 30.92 123.81 26.75 121.25 26.75 118.98 30.92 126.08 30.92"/></svg>